<?xml version="1.0" encoding="utf-8"?>
<!-- Generator: Adobe Illustrator 25.4.1, SVG Export Plug-In . SVG Version: 6.00 Build 0)  -->
<svg version="1.1" id="Layer_1" xmlns="http://www.w3.org/2000/svg" xmlns:xlink="http://www.w3.org/1999/xlink" x="0px" y="0px"
	 viewBox="0 0 632.9 186.9" style="enable-background:new 0 0 632.9 186.9;" xml:space="preserve">
<style type="text/css">
	.st0{fill:#1D1D1B;}
	.st1{fill:#231F20;}
</style>
<g id="_55mm_White">
	<g id="Silkscreen_Option2">
		<path class="st0" d="M316.5,186.9h-0.1L46.9,160L0,93.4l46.9-66.5L316.3,0l269.8,26.9l46.9,66.6l-46.9,66.6l-0.7,0.1L316.5,186.9z
			 M48.5,157.2l267.9,26.8l267.9-26.7l44.8-63.7l-44.8-63.8L316.3,3L48.5,29.7L3.7,93.4C3.7,93.4,48.5,157.2,48.5,157.2z"/>
		<path class="st0" d="M578.5,39.6l-262-26.1L54.2,39.8L16.4,93.4l38.1,53.9l262,26.1l262.3-26.3l37.6-53.5l0.2-0.2L578.5,39.6z
			 M612.9,93.4l-35.7,51l-260.7,26L56.1,144.6l-36-51.2l35.7-51l260.7-26l260.4,25.8L612.9,93.4z"/>
		<g id="NEW">
			<path class="st0" d="M154.8,116.2V99.4h20.1c4.6,0.2,8.3,4.1,8.1,8.7c-0.2,4.4-3.7,8-8.1,8.1H154.8z M154.8,87.2V70.8h14.1
				c4.5-0.2,8.3,3.4,8.5,7.9c0.2,4.5-3.4,8.3-7.9,8.5c-0.2,0-0.4,0-0.6,0L154.8,87.2z M181.5,92.5c5.5-2.5,9.1-8,9.2-14.1
				c0-12.3-8-19.8-21.8-19.8h-27.8v69.7h33.7c13.7,0,22-7.4,22-19.9C196.9,99.5,190.7,93.7,181.5,92.5L181.5,92.5z"/>
			<path class="st0" d="M271.3,70.8h-32.2v16.4h27.8v12.2h-27.8v16.8h33.6v12.2h-47.3V58.6h45.8V70.8z"/>
			<path class="st0" d="M304,128.4V58.6h13.6v57.5h32.9v12.2H304z"/>
			<path class="st0" d="M378.9,128.4V58.6h13.6v57.5h32.9v12.2H378.9z"/>
			<path class="st0" d="M494.4,128.4h14.3l-25.4-69.7h-10.8l-25.4,69.7h14.2l4.1-12.2h24.8L494.4,128.4z M469.4,104.6l8.5-25.6
				l8.6,25.6H469.4z"/>
		</g>
	</g>
</g>
<path class="st1" d="M615.2,152.2c0,4-3.2,7.2-7.2,7.2c-4,0-7.2-3.2-7.2-7.2c0-4,3.2-7.2,7.2-7.2c3.9-0.1,7.1,3.1,7.2,7
	C615.2,152,615.2,152.1,615.2,152.2z M601.9,152.2c0.1,3.4,2.8,6,6.2,6c3.4-0.1,6-2.8,6-6.2c-0.1-3.3-2.8-6-6.1-6
	c-3.3,0-6,2.6-6.1,5.9C601.9,152,601.9,152.1,601.9,152.2z M606.4,156.4h-1V148h3.2c1.9,0,2.7,0.8,2.7,2.3c0,1.2-0.9,2.2-2.1,2.3
	l2.5,3.7h-1.2l-2.3-3.7h-1.7V156.4z M607.8,151.8c1.3,0,2.5,0,2.5-1.4c0-1.2-1-1.4-2-1.4h-1.9v2.9H607.8z"/>
</svg>
